# xmcd
#
# Track frame offsets:
# 150
# 22321
# 44304
# 62764
# 84789
# 98151
# 113348
# 126869
# 144499
# 166945
#
# Disc length: 2441 seconds
#
#
# Revision: 7
# Processed by: cddbd v1.5.2PL0 Copyright (c) Steve Scherf et al.
# Submitted via: FreeRIP 2.951 
#
DISCID=7a09870a
DTITLE=Keb' Mo' - Keb' Mo' - Oklahoma
DYEAR=2019
DGENRE=Blues
TTITLE0=I Remember You
TTITLE1=Oklahoma
TTITLE2=Put A Woman In Charge
TTITLE3=This Is My Home
TTITLE4=Don't Throw It Away
TTITLE5=The Way I
TTITLE6=Ridin' On A Train
TTITLE7=I Should've
TTITLE8=Cold Outside
TTITLE9=Beautiful Music
EXTD=Audio CD (14. Juni 2019]\nErscheinungsdatum: 14. Juni 2019\nAnzahl Disks/Tonträger: 1\nLabel: Concord Records (Universal Music]\nASIN: B07R2HQ9M1
EXTT0=
EXTT1=
EXTT2=
EXTT3=
EXTT4=
EXTT5=
EXTT6=
EXTT7=
EXTT8=
EXTT9=
PLAYORDER=
